<svg width="522" height="748" viewBox="0 0 522 748" fill="none" xmlns="http://www.w3.org/2000/svg">
<rect x="2.6333" y="2.0835" width="517.074" height="743.625" rx="65" fill="#67B1EB" stroke="white" stroke-width="4" stroke-dasharray="20 20"/>
<rect x="55.2725" y="54.6724" width="411.795" height="172.612" rx="31" fill="#5AADF8" stroke="white" stroke-width="6"/>
<rect x="56.5793" y="279.393" width="102" height="102" rx="51" fill="#5AADF8" stroke="white" stroke-width="6"/>
<rect x="56.5793" y="433.393" width="102" height="102" rx="51" fill="#5AADF8" stroke="white" stroke-width="6"/>
<path d="M56.5793 638.393C56.5793 610.226 79.4128 587.393 107.579 587.393H258.579C286.746 587.393 309.579 610.226 309.579 638.393C309.579 666.559 286.746 689.393 258.579 689.393H107.579C79.4128 689.393 56.5793 666.559 56.5793 638.393Z" fill="#5AADF8" stroke="white" stroke-width="6"/>
<rect x="210.579" y="279.393" width="102" height="102" rx="51" fill="#5AADF8" stroke="white" stroke-width="6"/>
<rect x="210.579" y="433.393" width="102" height="102" rx="51" fill="#5AADF8" stroke="white" stroke-width="6"/>
<rect x="364.579" y="279.393" width="102" height="102" rx="51" fill="#5AADF8" stroke="white" stroke-width="6"/>
<rect x="364.579" y="433.393" width="102" height="102" rx="51" fill="#5AADF8" stroke="white" stroke-width="6"/>
<rect x="364.579" y="587.393" width="102" height="102" rx="51" fill="#5AADF8" stroke="white" stroke-width="6"/>
</svg>
